<svg width="100" height="100" viewBox="0 0 100 100" fill="none" xmlns="http://www.w3.org/2000/svg">
	<path fill-rule="evenodd" clip-rule="evenodd" d="M37.1827 77.2079C47.7346 80.9241 68.1963 84.4946 83.0682 64.4145C84.3242 62.7107 85.4827 60.937 86.538 59.1021L64.5842 46.4268C64.0382 48.5102 63.3353 50.5494 62.4815 52.5268C58.5328 61.7462 50.337 72.7248 37.3805 70.5041C36.985 70.4347 36.5859 70.3549 36.1834 70.2647L30.2847 74.1683C31.7494 74.971 33.2629 75.6814 34.8163 76.2953L35.6456 76.6249C36.1106 76.8227 36.638 77.017 37.1827 77.2079ZM53.0574 73.7554C57.6209 73.8222 62.1367 72.8192 66.2428 70.8268C70.0041 68.967 73.8765 65.969 77.5303 61.2222L67.9951 55.7156C66.1106 60.0371 63.576 64.0449 60.4794 67.5998C58.3406 70.0252 55.8365 72.102 53.0574 73.7554Z" fill="url(#paint0_linear)"/>
	<path fill-rule="evenodd" clip-rule="evenodd" d="M33.7788 26.3984C25.2881 33.6851 11.9707 49.6187 21.9188 72.5476C22.7644 74.4887 23.7214 76.3795 24.7849 78.2104L46.7353 65.5384C45.2074 64.0196 43.7937 62.3901 42.5055 60.6633C36.4957 52.6202 31.0897 40.028 39.4763 29.9065C39.7331 29.5976 40.0037 29.2923 40.2848 28.9869L39.8615 21.9258C38.4368 22.7931 37.0682 23.7492 35.7636 24.7884C35.5346 24.9654 35.3021 25.1354 35.0696 25.3436C34.6486 25.6721 34.2183 26.0237 33.7788 26.3984ZM28.8238 41.874C26.482 45.7944 25.0927 50.2095 24.7676 54.7645C24.4969 58.9492 25.1458 63.8035 27.4394 69.3379L36.978 63.8313C34.1772 60.0416 31.9759 55.8437 30.4512 51.3849C29.4168 48.3187 28.8677 45.1097 28.8238 41.874V41.874Z" fill="url(#paint1_linear)"/>
	<path fill-rule="evenodd" clip-rule="evenodd" d="M45.1322 15.6802C69.9486 18.522 77.0965 38.026 79.1541 49.0186C79.2582 49.5876 79.3519 50.1324 79.4317 50.6494C79.4803 50.9513 79.5254 51.2462 79.5636 51.5342C79.7856 53.1199 79.8897 54.4107 79.9383 55.2817L72.8563 51.1907C67.943 39.7887 54.8131 38.2932 45.1322 39.4522C42.9915 39.7023 40.8725 40.1117 38.7927 40.677V15.3332C40.9108 15.328 43.0273 15.4439 45.1322 15.6802ZM59.081 27.0405C62.8624 29.5998 65.9905 33.0107 68.2137 36.999C65.393 35.4165 62.3418 34.2855 59.1712 33.6471C54.5481 32.7408 49.8134 32.5489 45.1322 33.078V22.0682C51.0656 22.8489 55.5903 24.7018 59.081 27.0405Z" fill="url(#paint2_linear)"/>
	<defs>
		<linearGradient id="paint0_linear" x1="33.6469" y1="78.8316" x2="75.1118" y2="52.1137" gradientUnits="userSpaceOnUse">
			<stop stop-color="#AD16FF"/>
			<stop offset="1" stop-color="#5F2EEA"/>
		</linearGradient>
		<linearGradient id="paint1_linear" x1="41.6276" y1="27.651" x2="40.0607" y2="59.8704" gradientUnits="userSpaceOnUse">
			<stop stop-color="#AD16FF"/>
			<stop offset="1" stop-color="#5F2EEA"/>
		</linearGradient>
		<linearGradient id="paint2_linear" x1="79.796" y1="54.1954" x2="38.8517" y2="24.0077" gradientUnits="userSpaceOnUse">
			<stop stop-color="#AD16FF"/>
			<stop offset="1" stop-color="#5F2EEA"/>
		</linearGradient>
	</defs>
</svg>
