
<svg viewBox="0 0 284 72" fill="none" xmlns="http://www.w3.org/2000/svg">
	<g clip-path="url(#clip0_103_138)">
		<path fill-rule="evenodd" clip-rule="evenodd" d="M21.0724 68.503C32.6571 72.583 55.122 76.503 71.449 54.458C72.828 52.587 74.1 50.64 75.259 48.625L51.156 34.709C50.557 36.996 49.785 39.235 48.848 41.406C44.512 51.528 35.5143 63.581 21.2895 61.143C20.8552 61.067 20.4171 60.979 19.9752 60.88L13.499 65.166C15.1072 66.047 16.7688 66.827 18.4743 67.501L19.3847 67.863C19.8952 68.08 20.4743 68.294 21.0724 68.503ZM38.5009 64.713C43.511 64.786 48.469 63.685 52.977 61.498C57.107 59.456 61.358 56.164 65.369 50.953L54.901 44.907C52.832 49.652 50.049 54.052 46.649 57.955C44.301 60.618 41.5521 62.898 38.5009 64.713Z" fill="url(#paint0_linear_103_138)"/>
		<path fill-rule="evenodd" clip-rule="evenodd" d="M17.3359 12.72C8.01398 20.72 -6.60693 38.213 4.31497 63.387C5.24337 65.518 6.29397 67.594 7.46157 69.604L31.5607 55.691C29.8833 54.024 28.3312 52.235 26.9169 50.339C20.3188 41.509 14.3836 27.684 23.5912 16.571C23.8731 16.232 24.1702 15.897 24.4788 15.562L24.014 7.80957C22.4499 8.76177 20.9473 9.81147 19.515 10.9524C19.2636 11.147 19.0083 11.333 18.7531 11.562C18.2909 11.923 17.8185 12.309 17.3359 12.72ZM11.8959 29.711C9.32478 34.015 7.79947 38.862 7.44257 43.863C7.14547 48.457 7.85777 53.787 10.3759 59.863L20.8483 53.817C17.7734 49.657 15.3565 45.048 13.6826 40.152C12.5469 36.786 11.9441 33.263 11.8959 29.711Z" fill="url(#paint1_linear_103_138)"/>
		<path fill-rule="evenodd" clip-rule="evenodd" d="M29.7998 0.95237C57.046 4.07237 64.893 25.486 67.152 37.554C67.267 38.179 67.369 38.777 67.457 39.345C67.51 39.676 67.56 40 67.602 40.316C67.846 42.057 67.96 43.474 68.013 44.431L60.238 39.939C54.844 27.421 40.4284 25.779 29.7998 27.051C27.4496 27.326 25.1232 27.776 22.8398 28.396V0.571472C25.1652 0.565772 27.489 0.69297 29.7998 0.95237ZM45.114 13.425C49.266 16.235 52.7 19.979 55.141 24.358C52.044 22.621 48.694 21.379 45.213 20.678C40.1376 19.683 34.9393 19.472 29.7998 20.053V7.96577C36.3141 8.82287 41.2817 10.8572 45.114 13.425Z" fill="url(#paint2_linear_103_138)"/>
		<path d="M92 56.5096V27.5116C93.555 24.6536 96.539 23.2246 100.952 23.2246H107.76L111.542 26.0616V30.7896H103.284C102.023 30.7896 101.162 31.1046 100.7 31.7346V56.5096H92Z" fill="#0E1121"/>
		<path d="M114.369 46.2966V33.4366C114.369 26.6286 117.773 23.2246 124.582 23.2246H132.777C139.585 23.2246 142.989 26.6286 142.989 33.4366V43.0816H123.069V46.9276C123.069 48.2726 123.741 48.9446 125.086 48.9446H141.729V53.6726L137.946 56.5096H124.582C117.773 56.5096 114.369 53.1056 114.369 46.2966ZM123.069 36.3996H134.29V32.8066C134.29 31.4616 133.617 30.7896 132.273 30.7896H125.086C123.741 30.7896 123.069 31.4616 123.069 32.8066V36.3996Z" fill="#0E1121"/>
		<path d="M145.295 24.5486L146.178 23.2246H153.68L161.37 48.9446H162.001L169.692 23.2246H177.193L178.076 24.5486L168.053 56.5096H155.319L145.295 24.5486Z" fill="#0E1121"/>
		<path d="M188.695 56.5096C181.886 56.5096 178.482 53.1686 178.482 46.4866C178.482 39.8036 181.886 36.4626 188.695 36.4626H197.394V32.8066C197.394 31.4616 196.722 30.7896 195.377 30.7896H182.012V26.0616L185.795 23.2246H195.881C202.69 23.2246 206.094 26.6286 206.094 33.4366V56.5096H188.695ZM187.182 46.9276C187.182 48.2726 187.854 48.9446 189.199 48.9446H197.394V43.1446H189.199C187.854 43.1446 187.182 43.8176 187.182 45.1626V46.9276Z" fill="#0E1121"/>
		<path d="M211.789 46.2966V23.2246H220.489V46.9276C220.489 48.2726 221.161 48.9446 222.506 48.9446H231.71V23.2246H240.41V56.5096H222.002C215.194 56.5096 211.789 53.1056 211.789 46.2966Z" fill="#0E1121"/>
		<path d="M246.354 44.406V9.86035H255.053V45.289C255.053 47.894 256.398 49.344 259.088 49.639V57.14C250.599 57.14 246.354 52.896 246.354 44.406Z" fill="#0E1121"/>
		<path d="M263.004 46.2967V13.0117H271.703V23.2247H282.546V30.7897H271.703V46.9277C271.703 48.2727 272.376 48.9447 273.721 48.9447H283.177V53.6727L279.394 56.5097H273.216C266.408 56.5097 263.004 53.1057 263.004 46.2967Z" fill="#0E1121"/>
	</g>
	<defs>
		<linearGradient id="paint0_linear_103_138" x1="17.1904" y1="70.286" x2="62.714" y2="40.953" gradientUnits="userSpaceOnUse">
			<stop stop-color="#AD16FF"/>
			<stop offset="1" stop-color="#5F2EEA"/>
		</linearGradient>
		<linearGradient id="paint1_linear_103_138" x1="25.953" y1="14.095" x2="24.2328" y2="49.469" gradientUnits="userSpaceOnUse">
			<stop stop-color="#AD16FF"/>
			<stop offset="1" stop-color="#5F2EEA"/>
		</linearGradient>
		<linearGradient id="paint2_linear_103_138" x1="67.857" y1="43.238" x2="22.9046" y2="10.0951" gradientUnits="userSpaceOnUse">
			<stop stop-color="#AD16FF"/>
			<stop offset="1" stop-color="#5F2EEA"/>
		</linearGradient>
		<clipPath id="clip0_103_138">
			<rect width="284" height="72" fill="white"/>
		</clipPath>
	</defs>
</svg>
