<svg color="#FFFFFF" viewBox="0 0 503 136" fill="none" xmlns="http://www.w3.org/2000/svg">
	<path
		d="M76.0834 32.5967C76.2521 31.5563 75.5454 30.5763 74.5051 30.4077C73.4648 30.2391 72.4847 30.9458 72.3161 31.9861C72.1475 33.0264 72.8541 34.0064 73.8945 34.1751C74.9348 34.3437 75.9149 33.637 76.0834 32.5967ZM99.5765 46.998C99.745 45.9577 99.0384 44.9777 97.9981 44.809C96.9577 44.6404 95.9777 45.3471 95.8091 46.3875C95.6405 47.4278 96.3472 48.4078 97.3874 48.5764C98.4278 48.7451 99.4078 48.0384 99.5765 46.998ZM105.82 73.8371C105.989 72.7968 105.282 71.8167 104.242 71.6481C103.201 71.4795 102.221 72.1862 102.053 73.2265C101.884 74.2668 102.591 75.2469 103.631 75.4155C104.672 75.5841 105.652 74.8775 105.82 73.8371ZM91.4188 97.3301C91.5874 96.2898 90.8807 95.3097 89.8404 95.1411C88.8001 94.9725 87.82 95.6792 87.6514 96.7195C87.4828 97.7598 88.1895 98.7399 89.2298 98.9085C90.2701 99.0771 91.2502 98.3704 91.4188 97.3301ZM64.5797 103.574C64.7483 102.534 64.0417 101.553 63.0013 101.385C61.961 101.216 60.9809 101.923 60.8124 102.963C60.6438 104.004 61.3504 104.984 62.3907 105.152C63.4311 105.321 64.4111 104.614 64.5797 103.574ZM41.0867 89.1724C41.2554 88.1321 40.5487 87.1521 39.5084 86.9835C38.468 86.8148 37.488 87.5215 37.3194 88.5619C37.1508 89.6021 37.8574 90.5822 38.8978 90.7508C39.9381 90.9195 40.9181 90.2128 41.0867 89.1724ZM34.843 62.3334C35.0117 61.2931 34.305 60.313 33.2646 60.1444C32.2243 59.9758 31.2443 60.6824 31.0757 61.7228C30.907 62.7631 31.6137 63.7431 32.6541 63.9118C33.6943 64.0804 34.6744 63.3737 34.843 62.3334ZM49.2444 38.8404C49.413 37.8001 48.7063 36.82 47.666 36.6514C46.6257 36.4828 45.6456 37.1895 45.477 38.2298C45.3084 39.2701 46.0151 40.2501 47.0554 40.4188C48.0958 40.5874 49.0758 39.8807 49.2444 38.8404ZM62.0426 32.8727C62.2113 31.8324 61.5046 30.8524 60.4643 30.6837C59.4239 30.5151 58.4439 31.2218 58.2752 32.2621C58.1066 33.3024 58.8133 34.2825 59.8537 34.4511C60.894 34.6197 61.874 33.913 62.0426 32.8727ZM89.3183 37.2934C89.4869 36.2531 88.7802 35.2731 87.74 35.1045C86.6996 34.9359 85.7196 35.6425 85.5509 36.6828C85.3824 37.7232 86.089 38.7032 87.1293 38.8719C88.1697 39.0405 89.1497 38.3338 89.3183 37.2934ZM105.406 59.6965C105.574 58.6562 104.868 57.6762 103.827 57.5075C102.787 57.3389 101.807 58.0456 101.638 59.0859C101.47 60.1262 102.176 61.1063 103.217 61.2749C104.257 61.4435 105.237 60.7369 105.406 59.6965ZM100.997 86.8969C101.166 85.8565 100.459 84.8765 99.4187 84.7079C98.3783 84.5393 97.3983 85.2459 97.2297 86.2863C97.0611 87.3266 97.7678 88.3067 98.8081 88.4753C99.8484 88.6439 100.828 87.9372 100.997 86.8969ZM78.6694 102.996C78.838 101.956 78.1314 100.976 77.091 100.807C76.0507 100.639 75.0707 101.345 74.902 102.386C74.7334 103.426 75.4401 104.406 76.4804 104.575C77.5207 104.743 78.5008 104.037 78.6694 102.996ZM51.3937 98.5756C51.5623 97.5353 50.8557 96.5553 49.8153 96.3867C48.775 96.218 47.795 96.9247 47.6264 97.965C47.4577 99.0053 48.1644 99.9854 49.2047 100.154C50.245 100.323 51.2251 99.616 51.3937 98.5756ZM35.2942 76.248C35.4628 75.2077 34.7562 74.2276 33.7158 74.059C32.6755 73.8904 31.6954 74.597 31.5269 75.6374C31.3583 76.6777 32.0649 77.6578 33.1052 77.8263C34.1456 77.995 35.1256 77.2883 35.2942 76.248ZM39.7028 49.0476C39.8714 48.0073 39.1647 47.0272 38.1244 46.8587C37.0841 46.69 36.104 47.3967 35.9354 48.437C35.7668 49.4773 36.4735 50.4574 37.5138 50.626C38.5541 50.7946 39.5341 50.088 39.7028 49.0476Z"
		stroke="currentColor" stroke-width="60.6799" stroke-linecap="square"/>
	<path
		d="M184.834 115.661C174.658 114.277 167.324 107.377 164.463 96.4975C163.659 93.4368 163.449 87.8786 163.449 69.5962V46.5526H172.267H181.086V68.1812C181.086 88.7872 181.153 89.9476 182.512 92.7282C183.296 94.3334 185.027 96.4701 186.359 97.4765C188.421 99.0343 189.568 99.3418 194.079 99.5449C198.776 99.7565 199.71 99.5899 202.319 98.0754C203.937 97.1359 206.156 95.0893 207.249 93.5275L209.236 90.6878L209.44 68.6202L209.644 46.5526H218.427H227.211V80.4897V114.427H218.393H209.575V110.846V107.265L206.586 110.102C201.599 114.837 193.67 116.863 184.834 115.661ZM255.786 114.668C249.342 112.936 242.562 107.698 239.723 102.259C239.129 101.121 238.742 100.1 238.862 99.9909C239.25 99.6403 249.87 93.4916 251.783 92.5099C253.58 91.5876 253.666 91.6304 254.958 94.0901C256.958 97.8965 260.269 99.7609 265.713 100.147C271.174 100.534 274.959 99.2594 276.17 96.626C278.137 92.3492 274.511 89.5687 263.011 86.5364C252.069 83.6511 246.187 79.8869 243.133 73.8158C240.798 69.1738 240.794 62.4379 243.123 57.482C246.991 49.252 254.142 45.2069 265.734 44.6921C272.055 44.4114 273.21 44.5549 277.944 46.211C283.522 48.162 287.485 50.9248 290.983 55.3012C293.454 58.3919 293.212 59.1205 289.077 61.029C287.695 61.6669 284.793 63.2068 282.628 64.451C280.463 65.6953 278.58 66.7133 278.444 66.7133C278.307 66.7133 277.555 65.6853 276.771 64.429C272.515 57.6059 257.581 59.3117 259.381 66.4154C259.962 68.7117 264.47 71.0227 272.32 73.0488C281.323 75.3727 286.848 78.1134 290.251 81.944C293.537 85.6417 294.361 88.2576 294.346 94.9381C294.323 105.023 288.492 111.917 277.623 114.707C272.439 116.038 260.804 116.018 255.786 114.668ZM406.967 114.427C400.778 112.674 396.44 110.111 391.599 105.347C378.898 92.848 378.391 70.1274 390.5 56.0854C396.978 48.5734 406.393 44.5366 417.435 44.5366C431.341 44.5366 442.27 51.0733 448.316 63.0074C451.707 69.6996 453.464 81.363 451.753 85.8222L451.091 87.546H425.592H400.092L400.535 89.0581C401.422 92.0809 404.82 95.913 408.396 97.9227C411.802 99.8369 412.521 99.9784 418.837 99.9784C424.589 99.9784 426.085 99.7424 428.673 98.4273C430.352 97.5742 432.409 96.0621 433.244 95.0672C434.517 93.5504 434.955 93.3875 435.957 94.059C436.614 94.4995 439.67 96.2836 442.748 98.0238C445.826 99.764 448.344 101.579 448.344 102.058C448.344 103.453 441.759 109.484 437.849 111.67C435.874 112.774 432.424 114.148 430.181 114.724C424.453 116.194 412.676 116.044 406.967 114.427ZM434.423 73.4588C435.139 72.3117 431.523 66.2619 428.682 63.8526C423.385 59.3606 413.181 58.945 406.955 62.9677C404.06 64.8386 401.045 68.9959 400.451 71.9382L400.014 74.1056H417.017C427.179 74.1056 434.182 73.8453 434.423 73.4588ZM306.349 113.979C306.1 113.732 305.897 92.2613 305.897 66.2653V18.9999H314.715H323.533V36.1364C323.533 45.5615 323.686 53.2729 323.874 53.2729C324.061 53.2729 325.292 52.0916 326.609 50.6478C332.092 44.6347 345.015 42.5702 354.248 46.232C359.855 48.4557 364.453 52.841 367.2 58.5849C367.2 58.5849 368.431 61.4979 368.901 63.4582C369.334 65.2673 369.574 68.1735 369.574 68.1735L369.527 88.7424L369.733 114.468L361.177 114.279L352.621 114.091L352.679 94.2154C352.716 81.7052 352.452 73.0225 351.968 70.7844C350.228 62.7484 342.626 58.872 333.52 61.3774C329.294 62.5401 326.45 65.5629 324.897 70.543C323.662 74.5065 323.533 76.7807 323.533 94.6728V114.427H315.167C310.566 114.427 306.598 114.225 306.349 113.979ZM464.624 80.4898V46.5527H473.442H482.26V52.0605V57.5682L484.181 54.5673C485.238 52.9168 487.065 50.7643 488.241 49.7838C490.791 47.6576 496.475 45.4446 500.238 45.1121L502.949 44.8726V54.5134V64.1543L499.218 64.4364C491.88 64.9912 487.727 67.3083 484.496 72.6496L482.6 75.7856L482.392 95.1062L482.184 114.427H473.404H464.624L464.624 80.4898Z"
		fill="currentColor"/>
</svg>
