<svg viewBox="0 0 69 68" fill="none" xmlns="http://www.w3.org/2000/svg">
	<path fill-rule="evenodd" clip-rule="evenodd" d="M19.1832 63.2079C29.7351 66.9241 50.1968 70.4946 65.0687 50.4145C66.3247 48.7107 67.4832 46.937 68.5385 45.1021L46.5847 32.4268C46.0387 34.5102 45.3358 36.5494 44.482 38.5268C40.5333 47.7462 32.3375 58.7248 19.381 56.5041C18.9855 56.4347 18.5864 56.3549 18.1839 56.2647L12.2852 60.1683C13.7499 60.971 15.2634 61.6814 16.8168 62.2953L17.6461 62.6249C18.1111 62.8227 18.6385 63.017 19.1832 63.2079ZM35.0579 59.7554C39.6214 59.8222 44.1372 58.8192 48.2433 56.8268C52.0046 54.967 55.877 51.969 59.5308 47.2222L49.9956 41.7156C48.1111 46.0371 45.5765 50.0449 42.4799 53.5998C40.3411 56.0252 37.837 58.102 35.0579 59.7554Z" fill="#5F2EEA"/>
	<path fill-rule="evenodd" clip-rule="evenodd" d="M15.7788 12.3984C7.28813 19.6851 -6.02927 35.6187 3.91883 58.5476C4.76443 60.4887 5.72143 62.3795 6.78493 64.2104L28.7353 51.5384C27.2074 50.0196 25.7937 48.3901 24.5055 46.6633C18.4957 38.6202 13.0897 26.028 21.4763 15.9065C21.7331 15.5976 22.0037 15.2923 22.2848 14.9869L21.8615 7.92578C20.4368 8.79308 19.0682 9.74918 17.7636 10.7884C17.5346 10.9654 17.3021 11.1354 17.0696 11.3436C16.6486 11.6721 16.2183 12.0237 15.7788 12.3984ZM10.8238 27.874C8.48203 31.7944 7.09273 36.2095 6.76763 40.7645C6.49693 44.9492 7.14583 49.8035 9.43943 55.3379L18.978 49.8313C16.1772 46.0416 13.9759 41.8437 12.4512 37.3849C11.4168 34.3187 10.8677 31.1097 10.8238 27.874Z" fill="#5F2EEA"/>
	<path fill-rule="evenodd" clip-rule="evenodd" d="M27.1325 1.68017C51.9489 4.52197 59.0968 24.026 61.1544 35.0186C61.2585 35.5876 61.3522 36.1324 61.432 36.6494C61.4806 36.9513 61.5257 37.2462 61.5639 37.5342C61.7859 39.1199 61.89 40.4107 61.9386 41.2817L54.8566 37.1907C49.9433 25.7887 36.8134 24.2932 27.1325 25.4522C24.9918 25.7023 22.8728 26.1117 20.793 26.677V1.33318C22.9111 1.32798 25.0276 1.44387 27.1325 1.68017ZM41.0813 13.0405C44.8627 15.5998 47.9908 19.0107 50.214 22.999C47.3933 21.4165 44.3421 20.2855 41.1715 19.6471C36.5484 18.7408 31.8137 18.5489 27.1325 19.078V8.06817C33.0659 8.84887 37.5906 10.7018 41.0813 13.0405Z" fill="#5F2EEA"/>
</svg>
