<svg width="159" height="31" viewBox="0 0 159 31" fill="none" xmlns="http://www.w3.org/2000/svg">
    <g clip-path="url(#clip0_58_155)">
        <path d="M16.3269 9.14964C16.3552 8.97526 16.2367 8.811 16.0624 8.78273C15.888 8.75447 15.7237 8.87292 15.6955 9.0473C15.6672 9.22166 15.7856 9.38594 15.96 9.4142C16.1344 9.44246 16.2987 9.32401 16.3269 9.14964ZM20.2647 11.5635C20.2929 11.3891 20.1744 11.2249 20.0001 11.1966C19.8257 11.1683 19.6615 11.2868 19.6332 11.4612C19.6049 11.6355 19.7234 11.7998 19.8978 11.8281C20.0721 11.8563 20.2364 11.7379 20.2647 11.5635ZM21.3112 16.0621C21.3395 15.8877 21.221 15.7235 21.0466 15.6952C20.8723 15.6669 20.708 15.7854 20.6797 15.9598C20.6514 16.1341 20.77 16.2984 20.9443 16.3267C21.1187 16.3549 21.2829 16.2365 21.3112 16.0621ZM18.8973 19.9999C18.9256 19.8255 18.8071 19.6612 18.6328 19.633C18.4584 19.6047 18.2941 19.7232 18.2659 19.8975C18.2376 20.0719 18.3561 20.2362 18.5304 20.2644C18.7048 20.2927 18.8691 20.1742 18.8973 19.9999ZM14.3987 21.0464C14.427 20.872 14.3086 20.7078 14.1342 20.6795C13.9598 20.6512 13.7955 20.7697 13.7673 20.9441C13.739 21.1184 13.8575 21.2827 14.0318 21.311C14.2062 21.3392 14.3705 21.2208 14.3987 21.0464ZM10.461 18.6325C10.4893 18.4582 10.3707 18.2939 10.1964 18.2656C10.022 18.2374 9.85777 18.3558 9.8295 18.5302C9.80121 18.7046 9.91973 18.8688 10.0941 18.8971C10.2684 18.9254 10.4327 18.8069 10.461 18.6325ZM9.41444 14.1339C9.44273 13.9596 9.32425 13.7953 9.14988 13.767C8.9755 13.7388 8.81124 13.8572 8.78298 14.0316C8.75471 14.206 8.87317 14.3702 9.04754 14.3985C9.22191 14.4267 9.38617 14.3083 9.41444 14.1339ZM11.8283 10.1962C11.8566 10.0218 11.7382 9.85753 11.5637 9.82927C11.3894 9.80101 11.2251 9.91945 11.1968 10.0938C11.1686 10.2682 11.2871 10.4325 11.4614 10.4607C11.6358 10.489 11.8001 10.3705 11.8283 10.1962ZM13.9735 9.19591C14.0018 9.02153 13.8832 8.85727 13.7089 8.829C13.5345 8.80074 13.3703 8.91918 13.342 9.09356C13.3137 9.26793 13.4322 9.43221 13.6066 9.46046C13.7809 9.48872 13.9452 9.37028 13.9735 9.19591ZM18.5453 9.93688C18.5736 9.76251 18.455 9.59824 18.2807 9.56998C18.1063 9.54172 17.9421 9.66017 17.9138 9.83454C17.8856 10.0089 18.004 10.1732 18.1784 10.2014C18.3527 10.2297 18.517 10.1113 18.5453 9.93688ZM21.2417 13.692C21.27 13.5176 21.1515 13.3533 20.9772 13.325C20.8028 13.2968 20.6385 13.4152 20.6103 13.5896C20.582 13.764 20.7004 13.9283 20.8748 13.9565C21.0492 13.9848 21.2135 13.8663 21.2417 13.692ZM20.5028 18.2511C20.5311 18.0767 20.4126 17.9125 20.2382 17.8842C20.0638 17.8559 19.8996 17.9744 19.8713 18.1488C19.843 18.3231 19.9615 18.4874 20.1359 18.5157C20.3102 18.5439 20.4745 18.4255 20.5028 18.2511ZM16.7604 20.9496C16.7886 20.7752 16.6701 20.611 16.4958 20.5827C16.3214 20.5544 16.1572 20.6729 16.1289 20.8473C16.1006 21.0216 16.2191 21.1859 16.3934 21.2142C16.5678 21.2424 16.7321 21.124 16.7604 20.9496ZM12.1886 20.2086C12.2169 20.0343 12.0983 19.87 11.924 19.8417C11.7496 19.8135 11.5854 19.9319 11.5571 20.1063C11.5288 20.2807 11.6473 20.4449 11.8217 20.4732C11.996 20.5015 12.1603 20.383 12.1886 20.2086ZM9.49006 16.4662C9.51836 16.2918 9.39984 16.1276 9.22551 16.0993C9.05113 16.071 8.88686 16.1895 8.85861 16.3639C8.83034 16.5382 8.94878 16.7025 9.12316 16.7308C9.29753 16.759 9.4618 16.6406 9.49006 16.4662ZM10.229 11.907C10.2573 11.7327 10.1388 11.5684 9.96444 11.5401C9.79007 11.5119 9.6258 11.6303 9.59753 11.8047C9.56924 11.9791 9.68776 12.1433 9.8621 12.1716C10.0365 12.1999 10.2007 12.0814 10.229 11.907Z" stroke="black" stroke-width="10.1708" stroke-linecap="square"/>
        <path d="M38.0389 11.4478V17.6174C38.0389 19.222 37.1801 19.9452 35.9372 19.9452C34.8524 19.9452 33.971 19.2898 33.971 17.8886V11.4478H30.5811V18.3858C30.5811 21.4368 32.5246 23.0639 34.8072 23.0639C36.2987 23.0639 37.4287 22.5216 38.0389 21.6854V22.7475H41.4289V11.4478H38.0389Z" fill="black"/>
        <path d="M47.0109 14.7473C47.0109 14.3405 47.3725 14.1145 47.9601 14.1145C48.7058 14.1145 49.1578 14.5213 49.4742 15.1089L52.367 13.5495C51.4178 11.9449 49.7906 11.1313 47.9601 11.1313C45.6097 11.1313 43.5305 12.3743 43.5305 14.8377C43.5305 18.7474 49.09 18.092 49.09 19.335C49.09 19.787 48.6832 20.0356 47.8697 20.0356C46.8753 20.0356 46.2425 19.561 45.9487 18.7022L43.0107 20.3746C43.8921 22.2051 45.6097 23.0639 47.8697 23.0639C50.3104 23.0639 52.5704 21.9566 52.5704 19.3576C52.5704 15.1767 47.0109 16.0355 47.0109 14.7473Z" fill="black"/>
        <path d="M60.8868 11.1315C59.3952 11.1315 58.2653 11.6739 57.6551 12.5101V6.92798H54.2651V22.7477H57.6551V16.578C57.6551 14.9734 58.5139 14.2502 59.7568 14.2502C60.8416 14.2502 61.723 14.9056 61.723 16.3068V22.7477H65.1129V15.8096C65.1129 12.7587 63.1694 11.1315 60.8868 11.1315Z" fill="black"/>
        <path d="M70.4693 18.4536H78.4922C78.5826 18.0242 78.6278 17.5722 78.6278 17.0976C78.6278 13.6851 76.187 11.1313 72.8875 11.1313C69.3167 11.1313 66.876 13.7303 66.876 17.0976C66.876 20.465 69.2715 23.0639 73.1361 23.0639C75.283 23.0639 76.9554 22.2729 78.0628 20.7362L75.3508 19.1768C74.8988 19.674 74.1078 20.0356 73.1813 20.0356C71.9383 20.0356 70.8987 19.6288 70.4693 18.4536ZM70.4015 15.9225C70.7179 14.7699 71.5767 14.1371 72.8649 14.1371C73.8818 14.1371 74.8988 14.6117 75.2604 15.9225H70.4015Z" fill="black"/>
        <path d="M83.9385 13.4593V11.4479H80.5486V22.7477H83.9385V17.6402C83.9385 15.4028 85.9273 14.8379 87.3285 15.0638V11.2219C85.9047 11.2219 84.3905 11.9451 83.9385 13.4593Z" fill="black"/>
    </g>
    <line x1="97.0282" y1="3.69653" x2="97.0282" y2="26.3978" stroke="black" stroke-width="1.39973"/>
    <path d="M105.328 22.868V6.96118H107.659V22.868H105.328Z" fill="#8E8E8E"/>
    <path d="M115.711 23.1331C114.641 23.1331 113.688 22.8975 112.853 22.4261C112.032 21.9401 111.387 21.27 110.918 20.4157C110.449 19.5614 110.214 18.5673 110.214 17.4332C110.214 16.2843 110.442 15.2754 110.896 14.4065C111.365 13.5375 112.01 12.86 112.831 12.3739C113.666 11.8879 114.634 11.6449 115.733 11.6449C116.803 11.6449 117.734 11.8879 118.525 12.3739C119.317 12.8452 119.932 13.4786 120.372 14.2739C120.812 15.0692 121.031 15.9456 121.031 16.9029C121.031 17.0502 121.024 17.2122 121.009 17.389C121.009 17.551 121.002 17.7351 120.987 17.9413H112.501C112.574 19.0018 112.919 19.8118 113.534 20.3715C114.165 20.9165 114.89 21.1889 115.711 21.1889C116.37 21.1889 116.92 21.0417 117.36 20.7471C117.814 20.4378 118.151 20.0254 118.371 19.5099H120.702C120.409 20.5409 119.822 21.4025 118.943 22.0948C118.078 22.787 117.001 23.1331 115.711 23.1331ZM115.711 13.5669C114.934 13.5669 114.245 13.8026 113.644 14.2739C113.043 14.7305 112.677 15.4227 112.545 16.3506H118.701C118.657 15.4964 118.356 14.8189 117.8 14.3181C117.243 13.8173 116.546 13.5669 115.711 13.5669Z" fill="#8E8E8E"/>
    <path d="M127.143 23.1331C126.22 23.1331 125.458 22.9785 124.857 22.6692C124.256 22.3599 123.809 21.9548 123.516 21.4541C123.222 20.9386 123.076 20.3789 123.076 19.775C123.076 18.7146 123.486 17.875 124.307 17.2564C125.128 16.6378 126.3 16.3285 127.825 16.3285H130.683V16.1297C130.683 15.2754 130.448 14.6347 129.979 14.2076C129.525 13.7805 128.931 13.5669 128.199 13.5669C127.554 13.5669 126.989 13.7289 126.506 14.053C126.037 14.3623 125.751 14.8262 125.648 15.4448H123.318C123.391 14.6495 123.655 13.972 124.109 13.4123C124.578 12.8379 125.164 12.4034 125.868 12.1088C126.586 11.7995 127.37 11.6449 128.22 11.6449C129.745 11.6449 130.925 12.0499 131.76 12.86C132.596 13.6553 133.013 14.7452 133.013 16.1297V22.868H130.991L130.793 20.9901C130.485 21.594 130.038 22.1021 129.452 22.5145C128.865 22.9269 128.096 23.1331 127.143 23.1331ZM127.605 21.2331C128.235 21.2331 128.763 21.0858 129.188 20.7913C129.628 20.482 129.965 20.0769 130.199 19.5762C130.448 19.0754 130.602 18.5231 130.661 17.9192H128.067C127.143 17.9192 126.484 18.0812 126.088 18.4053C125.707 18.7293 125.516 19.1343 125.516 19.6204C125.516 20.1211 125.699 20.5188 126.066 20.8134C126.447 21.0932 126.96 21.2331 127.605 21.2331Z" fill="#8E8E8E"/>
    <path d="M135.731 22.868V11.91H137.819L138.017 13.9867C138.398 13.265 138.926 12.6979 139.6 12.2855C140.289 11.8584 141.117 11.6449 142.085 11.6449V14.0972H141.447C140.802 14.0972 140.223 14.2076 139.71 14.4285C139.212 14.6347 138.809 14.9956 138.501 15.5111C138.208 16.0119 138.061 16.7115 138.061 17.6099V22.868H135.731Z" fill="#8E8E8E"/>
    <path d="M144.083 22.868V11.91H146.149L146.325 13.832C146.662 13.1545 147.153 12.6243 147.798 12.2414C148.458 11.8437 149.213 11.6449 150.063 11.6449C151.382 11.6449 152.415 12.0573 153.163 12.8821C153.925 13.7069 154.306 14.9367 154.306 16.5716V22.868H151.998V16.8146C151.998 14.6937 151.133 13.6332 149.403 13.6332C148.539 13.6332 147.82 13.9425 147.249 14.5611C146.692 15.1797 146.413 16.0634 146.413 17.2122V22.868H144.083Z" fill="#8E8E8E"/>
    <defs>
        <clipPath id="clip0_58_155">
            <rect width="83.632" height="22.7012" fill="white" transform="translate(3.69653 3.69629)"/>
        </clipPath>
    </defs>
</svg>
