<svg width="362" height="99" viewBox="0 0 362 99" fill="none" xmlns="http://www.w3.org/2000/svg">
    <g clip-path="url(#clip0_54_98)">
        <path d="M54.6706 23.605C54.7931 22.8502 54.2801 22.1392 53.5255 22.0168C52.7708 21.8945 52.0597 22.4072 51.9374 23.162C51.8149 23.9167 52.3275 24.6278 53.0825 24.7501C53.8373 24.8725 54.5483 24.3597 54.6706 23.605ZM71.7152 34.0534C71.8372 33.2986 71.3246 32.5876 70.57 32.4652C69.8153 32.3429 69.1042 32.8556 68.9819 33.6104C68.8594 34.3652 69.3724 35.0762 70.127 35.1985C70.8818 35.3209 71.5928 34.8081 71.7152 34.0534ZM76.2451 53.5255C76.3675 52.7707 75.8546 52.0597 75.0999 51.9374C74.3452 51.8151 73.6341 52.3277 73.5118 53.0825C73.3893 53.8373 73.9023 54.5483 74.657 54.6706C75.4117 54.793 76.1227 54.2803 76.2451 53.5255ZM65.7966 70.57C65.9191 69.8153 65.4061 69.1042 64.6515 68.9819C63.8967 68.8596 63.1857 69.3723 63.0634 70.127C62.9409 70.8818 63.4539 71.5929 64.2085 71.7152C64.9633 71.8375 65.6743 71.3248 65.7966 70.57ZM46.3245 75.0999C46.447 74.3452 45.9343 73.6341 45.1794 73.5118C44.4246 73.3895 43.7135 73.9022 43.5912 74.657C43.4688 75.4117 43.9818 76.1228 44.7364 76.2451C45.4912 76.3674 46.2022 75.8547 46.3245 75.0999ZM29.28 64.6515C29.4025 63.8967 28.8895 63.1857 28.1349 63.0634C27.3801 62.9411 26.669 63.4538 26.5467 64.2086C26.4242 64.9633 26.9373 65.6743 27.6919 65.7967C28.4466 65.919 29.1577 65.4063 29.28 64.6515ZM24.7501 45.1794C24.8726 44.4246 24.3597 43.7136 23.6049 43.5913C22.8502 43.4689 22.1392 43.9816 22.0168 44.7364C21.8945 45.4912 22.4072 46.2022 23.162 46.3245C23.9167 46.4469 24.6278 45.9342 24.7501 45.1794ZM35.1985 28.1349C35.321 27.3801 34.8083 26.6691 34.0533 26.5467C33.2986 26.4244 32.5875 26.9371 32.4652 27.6919C32.3428 28.4467 32.8558 29.1577 33.6104 29.28C34.3652 29.4024 35.0762 28.8896 35.1985 28.1349ZM44.4838 23.8052C44.6063 23.0505 44.0933 22.3394 43.3387 22.2171C42.5839 22.0948 41.8728 22.6074 41.7505 23.3622C41.628 24.117 42.1411 24.8281 42.8957 24.9504C43.6505 25.0727 44.3615 24.56 44.4838 23.8052ZM64.2727 27.0125C64.3952 26.2578 63.8822 25.5468 63.1276 25.4244C62.3729 25.3021 61.6618 25.8148 61.5395 26.5695C61.4174 27.3243 61.93 28.0354 62.6846 28.1577C63.4394 28.28 64.1504 27.7673 64.2727 27.0125ZM75.9443 43.2663C76.0668 42.5115 75.5538 41.8005 74.7992 41.6782C74.0444 41.5558 73.3333 42.0685 73.211 42.8233C73.0886 43.5781 73.6012 44.2891 74.3562 44.4114C75.1109 44.5338 75.822 44.0211 75.9443 43.2663ZM72.7458 63.0006C72.8683 62.2458 72.3553 61.5348 71.6007 61.4124C70.8459 61.2901 70.1349 61.8028 70.0126 62.5576C69.8901 63.3123 70.4031 64.0234 71.1577 64.1457C71.9125 64.268 72.6235 63.7554 72.7458 63.0006ZM56.5468 74.681C56.6689 73.9262 56.1563 73.2152 55.4016 73.0929C54.6469 72.9705 53.9359 73.4832 53.8135 74.238C53.6911 74.9928 54.2041 75.7038 54.9587 75.8262C55.7134 75.9485 56.4245 75.4358 56.5468 74.681ZM36.7579 71.4737C36.8803 70.7189 36.3673 70.0079 35.6127 69.8855C34.858 69.7632 34.1469 70.2759 34.0246 71.0307C33.9021 71.7854 34.4151 72.4965 35.1697 72.6188C35.9245 72.7411 36.6355 72.2285 36.7579 71.4737ZM25.0774 55.2747C25.1999 54.5199 24.6869 53.8088 23.9323 53.6865C23.1775 53.5642 22.4665 54.0769 22.3442 54.8316C22.2218 55.5864 22.7345 56.2975 23.4893 56.4198C24.2441 56.5421 24.9551 56.0294 25.0774 55.2747ZM28.2759 35.5404C28.3984 34.7856 27.8854 34.0746 27.1308 33.9523C26.376 33.8299 25.665 34.3426 25.5426 35.0974C25.4202 35.8522 25.9331 36.5632 26.6878 36.6855C27.4426 36.8078 28.1536 36.2952 28.2759 35.5404Z" stroke="#01000D" stroke-width="44.0241" stroke-linecap="square"/>
        <path d="M148.651 33.5523V60.2577C148.651 67.2031 144.934 70.3334 139.553 70.3334C134.858 70.3334 131.043 67.4965 131.043 61.4316V33.5523H116.37V63.5836C116.37 76.7896 124.782 83.8328 134.662 83.8328C141.119 83.8328 146.01 81.4851 148.651 77.8657V82.4633H163.324V33.5523H148.651Z" fill="black"/>
        <path d="M187.486 47.8343C187.486 46.0735 189.051 45.0952 191.595 45.0952C194.823 45.0952 196.779 46.856 198.149 49.3994L210.67 42.6497C206.561 35.7043 199.518 32.1827 191.595 32.1827C181.421 32.1827 172.422 37.5629 172.422 48.2256C172.422 65.1488 196.486 62.3119 196.486 67.6922C196.486 69.6486 194.725 70.7246 191.203 70.7246C186.899 70.7246 184.16 68.6703 182.888 64.9531L170.172 72.1919C173.987 80.1155 181.421 83.8328 191.203 83.8328C201.768 83.8328 211.55 79.0395 211.55 67.79C211.55 49.6929 187.486 53.4101 187.486 47.8343Z" fill="black"/>
        <path d="M247.548 32.1828C241.092 32.1828 236.201 34.5305 233.56 38.1499V13.9879H218.887V82.4633H233.56V55.7579C233.56 48.8125 237.277 45.6823 242.657 45.6823C247.353 45.6823 251.168 48.5191 251.168 54.584V82.4633H265.841V52.432C265.841 39.226 257.428 32.1828 247.548 32.1828Z" fill="black"/>
        <path d="M289.025 63.8771H323.752C324.143 62.0185 324.339 60.062 324.339 58.0078C324.339 43.2366 313.774 32.1827 299.492 32.1827C284.036 32.1827 273.471 43.4323 273.471 58.0078C273.471 72.5832 283.84 83.8328 300.568 83.8328C309.861 83.8328 317.1 80.409 321.893 73.7571L310.154 67.0074C308.198 69.1594 304.774 70.7246 300.763 70.7246C295.383 70.7246 290.883 68.9638 289.025 63.8771ZM288.731 52.921C290.101 47.9321 293.818 45.1931 299.394 45.1931C303.796 45.1931 308.198 47.2473 309.763 52.921H288.731Z" fill="black"/>
        <path d="M347.327 42.2585V33.5523H332.654V82.4633H347.327V60.3555C347.327 50.6711 355.935 48.2256 362 49.2038V32.5741C355.837 32.5741 349.283 35.7044 347.327 42.2585Z" fill="black"/>
    </g>
    <defs>
        <clipPath id="clip0_54_98">
            <rect width="362" height="98.2619" fill="white"/>
        </clipPath>
    </defs>
</svg>
